<mxfile host="app.diagrams.net" modified="2023-09-13T20:48:45.535Z" agent="Mozilla/5.0 (Macintosh; Intel Mac OS X 10_15_7) AppleWebKit/537.36 (KHTML, like Gecko) Chrome/116.0.0.0 Safari/537.36" etag="c6w1fiG422xoGkCfy9jy" version="21.7.5" type="github">
  <diagram name="Page-1" id="zUjTet_T7Trm178qnUU-">
    <mxGraphModel dx="1306" dy="752" grid="1" gridSize="10" guides="1" tooltips="1" connect="1" arrows="1" fold="1" page="1" pageScale="1" pageWidth="850" pageHeight="1100" math="0" shadow="0">
      <root>
        <mxCell id="0" />
        <mxCell id="1" parent="0" />
      </root>
    </mxGraphModel>
  </diagram>
</mxfile>
